<svg xmlns="http://www.w3.org/2000/svg" viewBox="0 0 475.05 419.83"><defs><style>.cls-1{font-size:176.1px;fill:#1d1d1b;stroke:#ad9c8e;stroke-miterlimit:10;stroke-width:5px;font-family:KunstlerScript, Kunstler Script;}.cls-2{fill:#ad9c8e;}.cls-3{fill:#e5d2c4;}.cls-4{fill:#f9f9f9;}</style></defs><g id="Capa_2" data-name="Capa 2"><g id="Capa_1-2" data-name="Capa 1"><text class="cls-1" transform="translate(2.5 228.46)">C</text><path class="cls-2" d="M409.18,190.41c-15.95-7.82-31.51-16.46-47.63-23.88-5.59-2.58-10.51-6.69-16.77-7.8-4.92-4-10.89-6.11-16.55-8.75-2.68-1.25-4.28-2.68-4.6-6.11-2.15-22.68-15.61-36.7-38.72-40.83-1.08-3-.13-6,.27-9,3.62-26.7,5.25-53.56-.85-80-4.17-18-.56-15.9-18.07-9.52-7.42,2.7-13.36,8.12-20.39,12.15a65.08,65.08,0,0,1-1.56-9.89V54.76c1.8-9.06,7.42-15.85,15.58-21.7,5.06-3.63,6.14-3,6.84,2.87,2.43,20.27-1,40.24-2.71,60.3-2.24,5-1.7,10.5-3.22,15.61-1,3.45.63,5,3.84,6,6.44,2,12.72,4.45,19.19,6.28,12.37,3.5,23.3,14.09,17.12,30.85-1.11,3-.4,4.8,2.45,6.13,10.49,4.93,20.93,9.95,31.39,14.93,16.15,8.2,32.23,16.55,48.49,24.52,4.44,2.18,5.28,4.14,2.41,8.29-4,5.87-7.57,12.09-12.22,19.61,18.87-4.45,30.61-14.9,38.28-30.56C413.5,194.31,413.14,192.35,409.18,190.41Z" transform="translate(-3.36)"/><path class="cls-3" d="M205.25,94c-.41-.3-14.65,6.15-16.07,6.57a94.18,94.18,0,0,1-35.79,3.63s-4.33.62-2.07-4.61,11.17-25.1,17.88-34.19c0,0,8.48-13.36,14.67-20,0,0,15-18.42,28.13-28.07C218.56,11.37,230.26,1,239.23.07,243.88-.4,243.5,1.5,245,6.28a108,108,0,0,1,3.24,12.77,157,157,0,0,1,1.42,44c-2.89,27.18-6.87,54.3-13.32,80.87-4.51,18.61-9.64,37.19-17.55,54.68-5.6,12.41-13.3,24.24-21,35.65-7.89,11.71-17.32,23.45-22.75,36.56,22.88-3.36,43.13,10.65,65.59,10.72a127.57,127.57,0,0,0,25.52-3c3.06-.61,20.89-2.38,22.14-4.37-13.82,21.94-44.8,32.7-69.45,28.25C199.87,299,180,290,160.22,295c-17.11,4.41-28.35,19.85-44.15,26.91-10.75,4.8-27.47,2.48-32.93-9.25-7.2-15.48,9.11-27,21.85-30.52q9.81-2.71,19.73-5.05c11.49-2.72,25.51-4,32.76-14.64,17.83-26.23,33.32-55,43.59-85A554.28,554.28,0,0,0,225,76.51s2.9-32.47,1.66-39.91a166.15,166.15,0,0,0-41,44.18s-8.35,9,2.76,9C188.44,89.77,199,89.37,205.25,94Z" transform="translate(-3.36)"/><path class="cls-4" d="M144.78,286.9c-10.5,1.47-21.18,2.67-31.28,5.3-5.2,1.35-15.87,5.57-12.31,11,4.62,7.08,14,2.65,19.66-.13a116,116,0,0,0,12-6.74,57,57,0,0,0,6.88-5C141.06,290.09,142.81,287.17,144.78,286.9Z" transform="translate(-3.36)"/><path d="M67,356.67a16.11,16.11,0,0,1-2.61-3.77,8.25,8.25,0,0,1-.76-3.52,10.06,10.06,0,0,1,1.52-5.32,11.34,11.34,0,0,1,4.09-4,10.93,10.93,0,0,1,5.49-1.46,7.55,7.55,0,0,1,5.12,1.56,5.52,5.52,0,0,1,1.79,4.42,7,7,0,0,1-.64,2.83,10.33,10.33,0,0,1-1.8,2.73,7.7,7.7,0,0,1-1.44,1.33,2.17,2.17,0,0,1-1.13.45c-.37,0-.56-.32-.56-1,0,0,0-.24.09-.76a20.12,20.12,0,0,0,.13-2.05,9.77,9.77,0,0,0-.34-2.55,8.1,8.1,0,0,0-.86-2.15c-.35-.57-.69-.86-1-.86-.16,0-.34.14-.54.41a4.76,4.76,0,0,0-.91,1.7,6.17,6.17,0,0,0-.33,1.89,7.29,7.29,0,0,0,.28,2,6.68,6.68,0,0,0,1,1.92,18.52,18.52,0,0,0,1.84,2.14,29.25,29.25,0,0,1,2.8,3.24,11.14,11.14,0,0,1,1.44,2.77,9.61,9.61,0,0,1,.45,3,12.08,12.08,0,0,1-1.32,5.47,11.75,11.75,0,0,1-3.49,4.26,7.39,7.39,0,0,1-4.48,1.62,9.4,9.4,0,0,1-4.3-1.07,14.25,14.25,0,0,1-3.93-3.08,6.09,6.09,0,0,1-1.9-3.75,2.93,2.93,0,0,1,.85-2,7.7,7.7,0,0,1,2.12-1.66,4.79,4.79,0,0,1,2.13-.68,1.27,1.27,0,0,1,.84.28,2.4,2.4,0,0,1,.62,1,13.64,13.64,0,0,1,.53,1.82,16.57,16.57,0,0,0,.75,2.43,6.88,6.88,0,0,0,1,1.57,1.82,1.82,0,0,0,1.36.73,1.54,1.54,0,0,0,1.36-.77,3.85,3.85,0,0,0,.49-2.11,7.91,7.91,0,0,0-1.31-4.2,7.39,7.39,0,0,0-.85-1.25c-.31-.37-1-1.07-2-2.11C68.17,357.92,67.66,357.4,67,356.67Z" transform="translate(-3.36)"/><path d="M93.54,361.31l-.43,1.61c-.07.36-.19.84-.35,1.44a33.77,33.77,0,0,1-1.93,6.05,7.79,7.79,0,0,1-.56.85,4.6,4.6,0,0,1-3.41,1.45,3.93,3.93,0,0,1-2.57-.8,2.51,2.51,0,0,1-1-2,17,17,0,0,1,.56-3.23c.38-1.55.8-3,1.26-4.43-1.13-.24-1.69-.79-1.69-1.63a5,5,0,0,1,.53-2,8.31,8.31,0,0,1,1.32-2,4,4,0,0,1,1.56-1.17c.21-.7.63-2.17,1.23-4.42a62.55,62.55,0,0,1,3.33-9.78,13.32,13.32,0,0,1,.89-1.3,3.76,3.76,0,0,1,2.87-1.19,4,4,0,0,1,1.91.43,3,3,0,0,1,1.28,1.17,3.41,3.41,0,0,1,.44,1.74q0,1.39-3.09,11.69c0,.12-.07.28-.14.5s-.12.42-.18.6l-.09.19,8-.19.39-1.54q.66-2.49,1.4-4.91c.49-1.62.91-2.92,1.26-3.91s.71-1.85,1.07-2.6a8.69,8.69,0,0,1,1-1.68,3.79,3.79,0,0,1,3.11-1.39c2.24,0,3.37,1.09,3.37,3.29s-1,5.84-2.94,11.31c-.29.81-.46,1.3-.52,1.48l.15,0h.15a3.22,3.22,0,0,1,1.87.48,1.48,1.48,0,0,1,.68,1.28,3.45,3.45,0,0,1-.58,1.54,11.74,11.74,0,0,1-1.24,1.77,6.46,6.46,0,0,1-1.12,1.09,7.18,7.18,0,0,1-1.77.56l-.08.39a13.27,13.27,0,0,0-.46,1.34c-.3.94-.61,1.89-.93,2.84s-.58,1.69-.79,2.22a11.37,11.37,0,0,1-.62,1.33,4.33,4.33,0,0,1-.84,1,9,9,0,0,1-2.38,1.47,6.06,6.06,0,0,1-2.23.58,2.19,2.19,0,0,1-1.6-.57,2.08,2.08,0,0,1-.58-1.58,34.22,34.22,0,0,1,1.62-7.3c.26-.81.43-1.4.53-1.78Z" transform="translate(-3.36)"/><path d="M130.29,342.57,129,339.88a3.43,3.43,0,0,1,.93-.61,11.29,11.29,0,0,1,4-.63,4.52,4.52,0,0,1,3.67,1.54,10.3,10.3,0,0,1,1.83,3.76,47.67,47.67,0,0,1,1.32,6.88c.22,1.51.41,2.65.57,3.41.5,2.13.84,3.5,1,4.09s.47,1.54.9,2.84c.14.38.33.9.57,1.58l.68,1.89q.72,1.9,2.16,5a19.33,19.33,0,0,1-3.06,2.08,5.18,5.18,0,0,1-2.29.63,3.76,3.76,0,0,1-2.13-.56A5,5,0,0,1,137.6,370a27.16,27.16,0,0,1-1.64-4.51q-.09-.27-.21-.69l-.27-.9a10.18,10.18,0,0,1-3.95,1.2c-.53,0-1,0-1.38-.05s-1.87-.08-4.62-.15l-.2.48a23.73,23.73,0,0,1-2.23,4.35,5.87,5.87,0,0,1-2.38,2.1,8.17,8.17,0,0,1-3.38.61,3.56,3.56,0,0,1-1.67-.29,1,1,0,0,1-.49-.95q0-.81,2.37-4.44c.56-.85,1-1.52,1.25-2-1.51-.32-2.26-.92-2.26-1.8,0-.72.6-1.78,1.81-3.2a4.2,4.2,0,0,1,1.61-1.3,8.59,8.59,0,0,1,2.6-.31q1.72-3.59,2.21-4.57T126,351.1l1.71-3.42Q128.67,345.76,130.29,342.57Zm1.87,6.43-3.95,9.48h5.84L132.24,349Z" transform="translate(-3.36)"/><path d="M154.27,346.33l.58-1.66c-.43.05-.88.12-1.34.22a6.11,6.11,0,0,1-1.19.09c-.7,0-1-.39-1-1.19a3.42,3.42,0,0,1,.27-1.21,3.08,3.08,0,0,1,.61-1.06,6.32,6.32,0,0,1,3.17-1.32,27.42,27.42,0,0,1,5.64-.51,14.62,14.62,0,0,1,4.74.76,12.31,12.31,0,0,1,3.9,2.08,10,10,0,0,1,2.56,3.05,7.88,7.88,0,0,1,.92,3.75,10.22,10.22,0,0,1-.8,4,9.59,9.59,0,0,1-2.27,3.25A10.19,10.19,0,0,1,168.2,358a13.18,13.18,0,0,1-2.42,1,10.33,10.33,0,0,0,.72,1.32,13.68,13.68,0,0,0,1.05,1.29,17.93,17.93,0,0,0,5.57,3.59,3.54,3.54,0,0,0,.43.2,21.22,21.22,0,0,1-.73,3,10.15,10.15,0,0,1-1.08,2.08,3.86,3.86,0,0,1-3.22,2,5.48,5.48,0,0,1-2.56-.87,8.88,8.88,0,0,1-2.49-2,18.13,18.13,0,0,1-1.39-2.13c-.43-.74-.86-1.6-1.29-2.55s-.8-1.88-1.11-2.78a19.22,19.22,0,0,1-.68-2.38,2.54,2.54,0,0,1-.05-.56,1.17,1.17,0,0,1,.26-.8,2.28,2.28,0,0,1,.95-.54,6.8,6.8,0,0,0,1.6-.87,13.48,13.48,0,0,0,1.58-1.47,10.28,10.28,0,0,0,1.69-3.14,11.06,11.06,0,0,0,.62-3.62,5.71,5.71,0,0,0-.88-3.38,4.8,4.8,0,0,0-2.82-1.7q-1.86,7.65-3.68,14.38l-.45,1.85q-1.12,4.39-1.9,6.51a9.46,9.46,0,0,1-1.52,3,8.09,8.09,0,0,1-2.35,1.68,6,6,0,0,1-2.51.83c-1.18,0-1.77-.75-1.77-2.24a18,18,0,0,1,.48-3.19q.5-2.25,1.5-5.9t2.13-7.14Q153,350,154.27,346.33Z" transform="translate(-3.36)"/><path d="M188.61,345.79a21.08,21.08,0,0,0-2.17,2.77,18.17,18.17,0,0,0-1.46,3.11,14.3,14.3,0,0,0-.84,3.1,17.12,17.12,0,0,0-.33,3.71,22.15,22.15,0,0,0,.54,5.33A7,7,0,0,0,186,367a3.43,3.43,0,0,0,2.55,1.09,4,4,0,0,0,2.47-1,10.28,10.28,0,0,0,2.29-2.63,14.78,14.78,0,0,0,1.65-3.62,12.81,12.81,0,0,0,.63-3.86,14.35,14.35,0,0,0-2-7,5.82,5.82,0,0,1-.76-2,2.94,2.94,0,0,1,1-2,13.35,13.35,0,0,1,2.52-2.12,4.62,4.62,0,0,1,2.25-.93,2.29,2.29,0,0,1,1,.26,2,2,0,0,1,.81.65,6.87,6.87,0,0,1,1.15,3,22.45,22.45,0,0,1,.45,4.58,26.65,26.65,0,0,1-2.08,10.62,19.3,19.3,0,0,1-5.66,7.71,11.9,11.9,0,0,1-12.5,1.85,10.4,10.4,0,0,1-3.82-2.69,10.69,10.69,0,0,1-2.48-7.34,18.89,18.89,0,0,1,.91-5.59,28.42,28.42,0,0,1,2.49-5.75,29.48,29.48,0,0,1,3.67-5.11,19.46,19.46,0,0,1,4.29-3.66,20.09,20.09,0,0,1,4.32-2,13.6,13.6,0,0,1,4.06-.73c1.64,0,2.46.28,2.46.85a2.13,2.13,0,0,1-.52,1.05,7.75,7.75,0,0,1-1.65,1.41,11.78,11.78,0,0,1-2.3.93,14.06,14.06,0,0,0-2.51,1.06A12.15,12.15,0,0,0,188.61,345.79Z" transform="translate(-3.36)"/><path d="M206.3,360.72l1.49-4.61,2.05-5.88a52.08,52.08,0,0,1,1.91-5.05,5.52,5.52,0,0,0,.6-1.85,2.19,2.19,0,0,0-1-1.54c-.45-.34-.67-.64-.67-.91s.45-.67,1.34-1.05a16.61,16.61,0,0,1,2.62-.93,9.52,9.52,0,0,1,2.38-.41,3.4,3.4,0,0,1,2.75,1.1c.73.83,1.61,3.4,2.66,7.73q.65,2.64,1.43,5.11a29.89,29.89,0,0,0,1.3,3.53,13.46,13.46,0,0,0,.8,1.52q.7-2.57,1.68-6.71a41.64,41.64,0,0,1,2.61-8.84,7.18,7.18,0,0,1,.84-1.29,6.42,6.42,0,0,1,1.91-1.41,4.71,4.71,0,0,1,2.06-.49,1,1,0,0,1,.87.36,2.75,2.75,0,0,1,.23,1.32,5.29,5.29,0,0,1-.08,1.05c-.14.85-.39,1.94-.75,3.28s-.87,3.07-1.52,5.18-1.47,4.65-2.45,7.65l-.32.9c-.12.39-.22.71-.31.95a72.24,72.24,0,0,1-4,10.74,5.25,5.25,0,0,1-.67.95,1.86,1.86,0,0,1-1.32.75q-1.67,0-3.59-4a78.09,78.09,0,0,1-5.48-14.75,24.6,24.6,0,0,1-.62-2.67H215l-2.61,9.31a4.22,4.22,0,0,1-.18.62c-.08.25-.16.49-.21.72l-.21.6c-.08.22-.15.4-.21.55-.47,1.63-.86,2.85-1.16,3.67a14.5,14.5,0,0,1-.91,2,9.1,9.1,0,0,1-1.14,1.64,8.8,8.8,0,0,1-2.45,1.8,5.93,5.93,0,0,1-2.65.66c-.74,0-1.1-.33-1.1-1a7,7,0,0,1,1-2.61,54.46,54.46,0,0,0,2.53-5.83C205.79,362.11,206,361.47,206.3,360.72Z" transform="translate(-3.36)"/><path d="M251.24,360l2.53-8.79a36.21,36.21,0,0,1,1.77-4.61,2.61,2.61,0,0,0-.5.27,6.21,6.21,0,0,1-2.12.68c-.59,0-.88-.25-.88-.75a6.22,6.22,0,0,1,.69-2.32,8.8,8.8,0,0,1,1.38-2.27,10.84,10.84,0,0,1,4.81-2.59,25.66,25.66,0,0,1,7.22-.95,18.91,18.91,0,0,1,4.37.46,10.27,10.27,0,0,1,3.34,1.38,6.52,6.52,0,0,1,2.11,2.21,5.81,5.81,0,0,1,.72,2.88,9.06,9.06,0,0,1-.82,3.95,9.91,9.91,0,0,1-2.59,3.25,10.82,10.82,0,0,1-3.72,2.19,3.64,3.64,0,0,1-.67.15v.12q7.59,1.09,7.58,7.08a9.23,9.23,0,0,1-.35,2.49,11.72,11.72,0,0,1-1,2.54,11.47,11.47,0,0,1-1.63,2.27,28.16,28.16,0,0,1-4.87,4.22A31.45,31.45,0,0,1,262.9,377a13.17,13.17,0,0,1-4.88,1.19,12.12,12.12,0,0,1-3.27-.44,7.18,7.18,0,0,1-2.5-1.16,2,2,0,0,1-.92-1.55,2.8,2.8,0,0,1,.37-1.41,8.31,8.31,0,0,1,1.4-1.64l-.09-.1a2.83,2.83,0,0,1-1.14.25,2.52,2.52,0,0,1-1.93-.78,3,3,0,0,1-.73-2.12,23.08,23.08,0,0,1,.6-3.53C250.22,363.84,250.69,361.94,251.24,360Zm9.42-3.2c-.06.21-.11.45-.17.71s-.12.5-.17.73c-.69,2.59-1.31,4.69-1.88,6.3a26.88,26.88,0,0,1-1.8,4.1,11.46,11.46,0,0,1-1.56,2.17c1.74.6,3,1,3.73,1.17a9.34,9.34,0,0,0,2.21.27,5.73,5.73,0,0,0,2.26-.43,5.42,5.42,0,0,0,1.85-1.38A11.26,11.26,0,0,0,267.2,367a10,10,0,0,0,.8-3.78,5,5,0,0,0-1.23-3.39,4.19,4.19,0,0,0-1.35-1.05,8.25,8.25,0,0,0-2.06-.61,7.83,7.83,0,0,1-1.68-.51A3.25,3.25,0,0,1,260.66,356.77Zm3.23-12.54-2.75,10.69a3,3,0,0,0,.52,0,4.47,4.47,0,0,0,2.64-1.19,12.29,12.29,0,0,0,2.94-3.19,6.33,6.33,0,0,0,1-3.3q0-3.34-3.11-3.35A2.2,2.2,0,0,0,263.89,344.23Z" transform="translate(-3.36)"/><path d="M293.16,342.57l-1.32-2.69a3.43,3.43,0,0,1,.93-.61,11.39,11.39,0,0,1,4-.63,4.53,4.53,0,0,1,3.67,1.54,10.63,10.63,0,0,1,1.83,3.76,50.6,50.6,0,0,1,1.32,6.88c.21,1.51.4,2.65.56,3.41.5,2.13.84,3.5,1,4.09s.46,1.54.89,2.84c.15.38.34.9.58,1.58s.46,1.3.68,1.89q.71,1.9,2.16,5a18.89,18.89,0,0,1-3.07,2.08,5.15,5.15,0,0,1-2.29.63,3.7,3.7,0,0,1-2.12-.56,5,5,0,0,1-1.55-1.78,29.11,29.11,0,0,1-1.64-4.51c-.06-.18-.13-.41-.2-.69s-.17-.57-.28-.9a10.14,10.14,0,0,1-3.94,1.2c-.54,0-1,0-1.39-.05s-1.87-.08-4.62-.15l-.19.48a24.37,24.37,0,0,1-2.23,4.35,5.89,5.89,0,0,1-2.39,2.1,8.17,8.17,0,0,1-3.38.61,3.51,3.51,0,0,1-1.66-.29,1,1,0,0,1-.5-.95q0-.81,2.38-4.44c.56-.85,1-1.52,1.25-2-1.51-.32-2.27-.92-2.27-1.8,0-.72.61-1.78,1.82-3.2a4.13,4.13,0,0,1,1.61-1.3,8.54,8.54,0,0,1,2.6-.31l2.2-4.57q.48-1,1.23-2.49c.51-1,1.08-2.14,1.72-3.42S292.08,344.7,293.16,342.57ZM295,349l-3.94,9.48h5.83l-1.8-9.48Z" transform="translate(-3.36)"/><path d="M317.13,346.33l.59-1.66a13.34,13.34,0,0,0-1.34.22,6.18,6.18,0,0,1-1.19.09c-.71,0-1.06-.39-1.06-1.19a3.42,3.42,0,0,1,.27-1.21,3.26,3.26,0,0,1,.62-1.06,6.23,6.23,0,0,1,3.16-1.32,27.59,27.59,0,0,1,5.65-.51,14.71,14.71,0,0,1,4.74.76,12.53,12.53,0,0,1,3.9,2.08,10.24,10.24,0,0,1,2.56,3.05,7.88,7.88,0,0,1,.91,3.75,10,10,0,0,1-.8,4,9.56,9.56,0,0,1-2.26,3.25,10.22,10.22,0,0,1-1.82,1.42,13.18,13.18,0,0,1-2.42,1,11.56,11.56,0,0,0,.73,1.32,12.23,12.23,0,0,0,1.05,1.29,17.81,17.81,0,0,0,5.57,3.59,3,3,0,0,0,.43.2,19.66,19.66,0,0,1-.74,3,10.15,10.15,0,0,1-1.08,2.08,3.84,3.84,0,0,1-3.21,2,5.45,5.45,0,0,1-2.56-.87,8.79,8.79,0,0,1-2.5-2,19.5,19.5,0,0,1-1.39-2.13c-.43-.74-.85-1.6-1.28-2.55a29.39,29.39,0,0,1-1.12-2.78,21.14,21.14,0,0,1-.68-2.38,2.67,2.67,0,0,1,0-.56,1.17,1.17,0,0,1,.26-.8,2.21,2.21,0,0,1,.95-.54,6.8,6.8,0,0,0,1.6-.87,14.4,14.4,0,0,0,1.57-1.47,10.3,10.3,0,0,0,1.7-3.14,11.05,11.05,0,0,0,.61-3.62,5.64,5.64,0,0,0-.88-3.38,4.8,4.8,0,0,0-2.82-1.7q-1.86,7.65-3.67,14.38l-.46,1.85q-1.12,4.39-1.89,6.51a9.67,9.67,0,0,1-1.52,3,8.16,8.16,0,0,1-2.36,1.68,5.91,5.91,0,0,1-2.51.83c-1.18,0-1.77-.75-1.77-2.24a17.36,17.36,0,0,1,.49-3.19q.48-2.25,1.5-5.9t2.13-7.14Q315.86,350,317.13,346.33Z" transform="translate(-3.36)"/><path d="M340.13,360l2.53-8.79a37.78,37.78,0,0,1,1.77-4.61,3,3,0,0,0-.5.27,6.17,6.17,0,0,1-2.11.68c-.59,0-.89-.25-.89-.75a6.22,6.22,0,0,1,.69-2.32,8.52,8.52,0,0,1,1.39-2.27,10.86,10.86,0,0,1,4.8-2.59,25.68,25.68,0,0,1,7.23-.95,18.91,18.91,0,0,1,4.37.46,10.46,10.46,0,0,1,3.34,1.38,6.39,6.39,0,0,1,2.1,2.21,5.81,5.81,0,0,1,.73,2.88,9.06,9.06,0,0,1-.83,3.95,9.78,9.78,0,0,1-2.59,3.25,10.88,10.88,0,0,1-3.71,2.19,3.86,3.86,0,0,1-.67.15v.12q7.58,1.09,7.58,7.08a9.25,9.25,0,0,1-.36,2.49,11.68,11.68,0,0,1-1,2.54,11.89,11.89,0,0,1-1.63,2.27,28.54,28.54,0,0,1-4.87,4.22A31.45,31.45,0,0,1,351.8,377a13.17,13.17,0,0,1-4.88,1.19,12.25,12.25,0,0,1-3.28-.44,7.21,7.21,0,0,1-2.49-1.16,2,2,0,0,1-.93-1.55,2.81,2.81,0,0,1,.38-1.41A7.86,7.86,0,0,1,342,372l-.09-.1a2.8,2.8,0,0,1-1.14.25,2.52,2.52,0,0,1-1.92-.78,3,3,0,0,1-.74-2.12,22.31,22.31,0,0,1,.61-3.53C339.11,363.84,339.59,361.94,340.13,360Zm9.43-3.2c-.06.21-.12.45-.18.71s-.11.5-.17.73c-.68,2.59-1.31,4.69-1.87,6.3a25.89,25.89,0,0,1-1.81,4.1,11.83,11.83,0,0,1-1.55,2.17q2.61.9,3.72,1.17a9.36,9.36,0,0,0,2.22.27,5.64,5.64,0,0,0,2.25-.43,5.33,5.33,0,0,0,1.85-1.38,11.26,11.26,0,0,0,2.07-3.37,9.81,9.81,0,0,0,.8-3.78,5,5,0,0,0-1.23-3.39,4.19,4.19,0,0,0-1.35-1.05,8.12,8.12,0,0,0-2.06-.61,8.23,8.23,0,0,1-1.68-.51A3.23,3.23,0,0,1,349.56,356.77Zm3.23-12.54L350,354.92a2.92,2.92,0,0,0,.51,0,4.51,4.51,0,0,0,2.65-1.19,12.07,12.07,0,0,0,2.93-3.19,6.25,6.25,0,0,0,1-3.3c0-2.23-1-3.35-3.11-3.35A2.16,2.16,0,0,0,352.79,344.23Z" transform="translate(-3.36)"/><path d="M380.48,345.79a21.08,21.08,0,0,0-2.17,2.77,18.17,18.17,0,0,0-1.46,3.11,14.3,14.3,0,0,0-.84,3.1,17.12,17.12,0,0,0-.33,3.71,22.15,22.15,0,0,0,.54,5.33,7,7,0,0,0,1.6,3.22,3.43,3.43,0,0,0,2.55,1.09,4.05,4.05,0,0,0,2.47-1,10.28,10.28,0,0,0,2.29-2.63,15.16,15.16,0,0,0,1.65-3.62,12.81,12.81,0,0,0,.63-3.86,14.35,14.35,0,0,0-2-7,5.82,5.82,0,0,1-.76-2,2.94,2.94,0,0,1,1-2,13.35,13.35,0,0,1,2.52-2.12,4.62,4.62,0,0,1,2.25-.93,2.29,2.29,0,0,1,1,.26,2,2,0,0,1,.81.65,6.87,6.87,0,0,1,1.15,3,22.45,22.45,0,0,1,.45,4.58,26.65,26.65,0,0,1-2.08,10.62,19.3,19.3,0,0,1-5.66,7.71,11.9,11.9,0,0,1-12.5,1.85,10.4,10.4,0,0,1-3.82-2.69,10.69,10.69,0,0,1-2.48-7.34,18.89,18.89,0,0,1,.91-5.59,28.42,28.42,0,0,1,2.49-5.75,29.48,29.48,0,0,1,3.67-5.11,19.46,19.46,0,0,1,4.29-3.66,20.09,20.09,0,0,1,4.32-2,13.6,13.6,0,0,1,4.06-.73c1.64,0,2.46.28,2.46.85a2.13,2.13,0,0,1-.52,1.05,7.75,7.75,0,0,1-1.65,1.41,12.06,12.06,0,0,1-2.3.93,14.06,14.06,0,0,0-2.51,1.06A12.15,12.15,0,0,0,380.48,345.79Z" transform="translate(-3.36)"/><path d="M401.64,356.67A16.11,16.11,0,0,1,399,352.9a8.25,8.25,0,0,1-.76-3.52,10,10,0,0,1,1.53-5.32,11.23,11.23,0,0,1,4.08-4,10.93,10.93,0,0,1,5.49-1.46,7.55,7.55,0,0,1,5.12,1.56,5.53,5.53,0,0,1,1.8,4.42,7,7,0,0,1-.65,2.83,10.09,10.09,0,0,1-1.8,2.73,7.7,7.7,0,0,1-1.44,1.33,2.17,2.17,0,0,1-1.13.45c-.37,0-.56-.32-.56-1,0,0,0-.24.09-.76a17.6,17.6,0,0,0,.13-2.05,9.77,9.77,0,0,0-.34-2.55,8.1,8.1,0,0,0-.86-2.15c-.35-.57-.69-.86-1-.86s-.34.14-.54.41a4.92,4.92,0,0,0-.91,1.7,6.14,6.14,0,0,0-.32,1.89,7.3,7.3,0,0,0,.27,2,6.68,6.68,0,0,0,1,1.92,18.52,18.52,0,0,0,1.84,2.14,29.25,29.25,0,0,1,2.8,3.24,10.82,10.82,0,0,1,1.44,2.77,9.61,9.61,0,0,1,.45,3,12.08,12.08,0,0,1-1.32,5.47,11.75,11.75,0,0,1-3.49,4.26,7.39,7.39,0,0,1-4.48,1.62,9.33,9.33,0,0,1-4.29-1.07,14.15,14.15,0,0,1-3.94-3.08,6.09,6.09,0,0,1-1.9-3.75,2.93,2.93,0,0,1,.85-2,7.7,7.7,0,0,1,2.12-1.66,4.79,4.79,0,0,1,2.13-.68,1.27,1.27,0,0,1,.84.28,2.4,2.4,0,0,1,.62,1,12.29,12.29,0,0,1,.53,1.82,16.57,16.57,0,0,0,.75,2.43,6.88,6.88,0,0,0,1,1.57,1.82,1.82,0,0,0,1.36.73,1.53,1.53,0,0,0,1.36-.77,3.85,3.85,0,0,0,.49-2.11,7.82,7.82,0,0,0-1.31-4.2,7.39,7.39,0,0,0-.85-1.25c-.31-.37-1-1.07-2-2.11C402.84,357.92,402.33,357.4,401.64,356.67Z" transform="translate(-3.36)"/><path d="M432.68,342.57l-1.32-2.69a3.43,3.43,0,0,1,.93-.61,11.33,11.33,0,0,1,4-.63,4.51,4.51,0,0,1,3.67,1.54,10.46,10.46,0,0,1,1.84,3.76,50.6,50.6,0,0,1,1.32,6.88c.21,1.51.4,2.65.56,3.41.5,2.13.84,3.5,1,4.09s.46,1.54.89,2.84c.15.38.34.9.58,1.58s.46,1.3.68,1.89q.7,1.9,2.15,5a18.88,18.88,0,0,1-3.06,2.08,5.18,5.18,0,0,1-2.29.63,3.76,3.76,0,0,1-2.13-.56A5.11,5.11,0,0,1,440,370a28.1,28.1,0,0,1-1.64-4.51q-.09-.27-.21-.69l-.27-.9a10.14,10.14,0,0,1-3.94,1.2c-.54,0-1,0-1.39-.05s-1.87-.08-4.62-.15l-.2.48a23.79,23.79,0,0,1-2.22,4.35,6,6,0,0,1-2.39,2.1,8.17,8.17,0,0,1-3.38.61,3.51,3.51,0,0,1-1.66-.29,1,1,0,0,1-.5-.95q0-.81,2.38-4.44c.56-.85,1-1.52,1.25-2-1.51-.32-2.27-.92-2.27-1.8,0-.72.61-1.78,1.81-3.2a4.27,4.27,0,0,1,1.61-1.3,8.67,8.67,0,0,1,2.61-.31l2.2-4.57c.31-.66.73-1.49,1.23-2.49l1.72-3.42Q431.06,345.76,432.68,342.57Zm1.86,6.43-4,9.48h5.84L434.62,349Z" transform="translate(-3.36)"/><path d="M39.55,392h8.69c4.45,0,7.51,2.79,7.51,7.66s-3,7.85-7.75,7.85H41.46v12H39.55Zm1.91,13.55h6.71c3.93,0,5.56-2.36,5.56-5.81,0-3.69-2.15-5.78-5.42-5.78H41.46Z" transform="translate(-3.36)"/><path d="M62.59,406.6v12.83H60.68V392H69.4c4.8,0,7.34,2.91,7.34,7.22,0,3.5-1.84,5.78-4.56,6.44,2.51.67,4.18,2.52,4.18,7.19v1.06c0,1.92-.14,4.51.31,5.57H74.76c-.46-1.17-.35-3.37-.35-5.73V413c0-4.52-1.18-6.4-5.84-6.4Zm0-2h5.87c4.28,0,6.26-1.8,6.26-5.42,0-3.37-1.94-5.3-5.73-5.3h-6.4Z" transform="translate(-3.36)"/><path d="M102.94,405.5c0,7.5-3.54,14.33-11,14.33C85,419.83,81,413.58,81,405.69s3.86-14.13,11.09-14.13C98.81,391.56,102.94,397.49,102.94,405.5Zm-19.88.07c0,6.33,3.09,12.29,8.93,12.29,6.29,0,8.94-5.81,8.94-12.32s-3-12-8.87-12C85.81,393.52,83.06,399.37,83.06,405.57Z" transform="translate(-3.36)"/><path d="M108.29,392h8.06c6.68,0,11.3,5.26,11.3,13.51s-4.52,14-11.33,14h-8Zm1.88,25.52H116c6.43,0,9.59-5.1,9.59-11.9,0-6-2.84-11.66-9.59-11.66h-5.87Z" transform="translate(-3.36)"/><path d="M135,392V408.6c0,7.3,3.65,9.18,7.09,9.18,4.07,0,7.09-1.92,7.09-9.18V392h1.91v16.53c0,8.6-4,11.27-9.07,11.27-4.79,0-9-2.95-9-10.92V392Z" transform="translate(-3.36)"/><path d="M176.1,412.09c-1.15,4.36-4,7.66-9.15,7.66-7,0-10.67-6.28-10.67-14,0-7.42,3.62-14.17,10.71-14.17,5.25,0,8.34,3.3,9.14,7.89h-1.88c-1.11-3.57-3.16-5.93-7.37-5.93-6,0-8.58,6.24-8.58,12.17s2.5,12.09,8.72,12.09c4,0,6-2.31,7.2-5.69Z" transform="translate(-3.36)"/><path d="M186.48,393.91h-8.16v-2H196.6v2h-8.2v25.52h-1.92Z" transform="translate(-3.36)"/><path d="M220,405.5c0,7.5-3.55,14.33-11.06,14.33-6.84,0-10.84-6.25-10.84-14.14s3.86-14.13,11.09-14.13C215.85,391.56,220,397.49,220,405.5Zm-19.88.07c0,6.33,3.09,12.29,8.93,12.29,6.29,0,8.93-5.81,8.93-12.32s-3-12-8.86-12C202.85,393.52,200.11,399.37,200.11,405.57Z" transform="translate(-3.36)"/><path d="M227.25,406.6v12.83h-1.91V392h8.72c4.8,0,7.34,2.91,7.34,7.22,0,3.5-1.85,5.78-4.56,6.44,2.5.67,4.17,2.52,4.17,7.19v1.06c0,1.92-.14,4.51.32,5.57h-1.92c-.45-1.17-.34-3.37-.34-5.73V413c0-4.52-1.19-6.4-5.84-6.4Zm0-2h5.87c4.28,0,6.26-1.8,6.26-5.42,0-3.37-1.95-5.3-5.74-5.3h-6.39Z" transform="translate(-3.36)"/><path d="M250.12,409.93l-3.1,9.5h-1.91L254,392h2.23l9.31,27.48h-2.05l-3.16-9.5Zm9.62-2c-2.71-8.17-4.1-12.09-4.58-13.94h0c-.59,2.08-2.15,7-4.34,13.94Z" transform="translate(-3.36)"/><path d="M300,406.79c0-5.38,0-10.52.14-13.27H300c-1,3.69-5.91,17.24-9,25.91h-1.84c-2.33-6.71-7.44-21.79-8.55-25.95h-.07c.17,3.14.24,9.54.24,14.25v11.7h-1.88V392h2.82c3.34,9.42,7.54,21.75,8.45,24.85h.07c.55-2,5.42-15.7,8.82-24.85h2.79v27.48H300Z" transform="translate(-3.36)"/><path d="M310.83,392V408.6c0,7.3,3.65,9.18,7.09,9.18,4.07,0,7.09-1.92,7.09-9.18V392h1.91v16.53c0,8.6-4,11.27-9.07,11.27-4.8,0-9-2.95-9-10.92V392Z" transform="translate(-3.36)"/><path d="M333.73,392h1.88v25.52h13.06l-.34,2h-14.6Z" transform="translate(-3.36)"/><path d="M353.82,393.91h-8.17v-2h18.28v2h-8.2v25.52h-1.91Z" transform="translate(-3.36)"/><path d="M369.42,392v27.48h-1.88V392Z" transform="translate(-3.36)"/><path d="M397.64,406.79c0-5.38,0-10.52.14-13.27h-.1c-1,3.69-5.91,17.24-9,25.91h-1.84c-2.33-6.71-7.44-21.79-8.55-25.95h-.07c.18,3.14.25,9.54.25,14.25v11.7h-1.88V392h2.81c3.34,9.42,7.55,21.75,8.45,24.85h.07c.56-2,5.42-15.7,8.83-24.85h2.78v27.48h-1.88Z" transform="translate(-3.36)"/><path d="M421,405.93H408.55v11.54h13.59l-.28,2H406.67V392h14.92v2h-13v10H421Z" transform="translate(-3.36)"/><path d="M426.93,392H435c6.67,0,11.3,5.26,11.3,13.51s-4.52,14-11.34,14h-8Zm1.88,25.52h5.88c6.43,0,9.59-5.1,9.59-11.9,0-6-2.85-11.66-9.59-11.66h-5.88Z" transform="translate(-3.36)"/><path d="M453.52,392v27.48h-1.88V392Z" transform="translate(-3.36)"/><path d="M462.94,409.93l-3.09,9.5h-1.92L466.87,392h2.22l9.32,27.48h-2.05l-3.17-9.5Zm9.63-2c-2.71-8.17-4.1-12.09-4.59-13.94h0c-.59,2.08-2.15,7-4.34,13.94Z" transform="translate(-3.36)"/></g></g></svg>