<svg xmlns="http://www.w3.org/2000/svg" viewBox="0 0 719.21 175.01"><defs><style>.cls-1,.cls-3,.cls-4,.cls-5{stroke:#000;stroke-miterlimit:10;}.cls-1,.cls-3{stroke-width:1.06px;}.cls-2{fill:#111669;}.cls-3{stroke-linecap:square;}.cls-4{stroke-width:3.18px;}.cls-5{stroke-width:2.12px;}.cls-6{fill:#33c;}.cls-7{fill:none;}</style></defs><g id="Capa_2" data-name="Capa 2"><g id="Capa_1-2" data-name="Capa 1"><path class="cls-1" d="M116.69,5.77V39.29s-7-21.33-36-30c0,0-8.46-3.5-22-3.5A24.12,24.12,0,0,1,73.21.58s26.54-1.31,35,9.19Z"/><path class="cls-1" d="M34.19,31.78a21.84,21.84,0,0,0-1,2.11c-2,4.76-5.66,16.93,1,29.41a124.26,124.26,0,0,0,35.51,28s22.51-1.5,28.51-7c0,0-32.46-14-39.49-22.76C58.72,61.55,38.63,45.29,34.19,31.78Z"/><path class="cls-1" d="M84.08,111.09s4.43,3.2,29,0c0,0,5.54,23.8-5.47,39.31C107.59,150.4,108.83,125.58,84.08,111.09Z"/><path class="cls-2" d="M104.91,154.56a12.59,12.59,0,0,1-2.1,4,19.16,19.16,0,0,1-3.15,3.28,25.6,25.6,0,0,1-7.93,4.39l-2.17.68-2.2.47-1.11.2c-.37.06-.74.09-1.12.12-.74.08-1.49.13-2.23.19-1.49,0-3,0-4.45-.13a42.63,42.63,0,0,1-4.37-.83,43.45,43.45,0,0,1,4.28-.95c1.4-.36,2.8-.6,4.17-.92s2.74-.6,4.06-1l2-.55,2-.66a48.63,48.63,0,0,0,7.51-3.3A34.2,34.2,0,0,0,104.91,154.56Z"/><path class="cls-3" d="M26.11,122.89s11.47,35,43.48,44c0,0-27,.49-39-9.52l-4.45,11.65Z"/><path d="M318.05,81.63,292.54,4.35,281.34,44l14.49,32.84s8.94-12.24,11.72-6.74Z"/><path class="cls-1" d="M305.45,114.91H328l14,34.88s5.5,18.22,19,23.08l-49.75.55s19.46-1.19,9.73-19.2Z"/><path class="cls-2" d="M278.53,51.32a48.74,48.74,0,0,1-1.59,8.08c-.73,2.63-1.59,5.2-2.56,7.72s-2.06,5-3.28,7.44a48,48,0,0,1-4.25,7.07,48.66,48.66,0,0,1,1.59-8.09c.73-2.62,1.58-5.2,2.56-7.72s2.06-5,3.29-7.44A48.73,48.73,0,0,1,278.53,51.32Z"/><path class="cls-2" d="M255.18,114.91a80.29,80.29,0,0,1-2,10.31q-1.32,5-3,10c-1.13,3.28-2.37,6.53-3.74,9.72a80,80,0,0,1-4.72,9.39,78.29,78.29,0,0,1,2-10.31q1.31-5.06,3-10t3.74-9.72A81.54,81.54,0,0,1,255.18,114.91Z"/><path class="cls-4" d="M222.89,173.42H261.4s-16.5-2.69-21-12.7C240.39,160.72,238.89,166.11,222.89,173.42Z"/><polygon points="384.69 3.77 384.69 32.75 385.71 34.3 416.51 80.99 438.02 80.99 384.69 3.77"/><path class="cls-2" d="M384.69,40a34.32,34.32,0,0,1,1.42,6.74,59.36,59.36,0,0,1,0,13.5A33.78,33.78,0,0,1,384.69,67a34.47,34.47,0,0,1-1.42-6.74,56.58,56.58,0,0,1-.39-6.75,58.75,58.75,0,0,1,.39-6.75A34.32,34.32,0,0,1,384.69,40Z"/><path class="cls-2" d="M381.07,153.13a64.46,64.46,0,0,1-1.43-9.26q-.39-4.63-.39-9.27c0-3.09.12-6.18.39-9.27a62,62,0,0,1,1.43-9.26,63.26,63.26,0,0,1,1.42,9.26c.27,3.09.39,6.18.39,9.27s-.13,6.18-.39,9.27A63.06,63.06,0,0,1,381.07,153.13Z"/><path class="cls-5" d="M370.36,172.44l25.2.34s-11.8-4.19-14.49-12.69C381.07,160.09,378.37,168.78,370.36,172.44Z"/><path class="cls-5" d="M451.84,3.72h29.51s-12.5,3.83-14.76,14.54C466.59,18.26,461.34,7,451.84,3.72Z"/><path class="cls-2" d="M467.43,26.66A133.32,133.32,0,0,1,469,40.23q.47,6.8.53,13.59c.05,4.53,0,9.06-.24,13.59A130.53,130.53,0,0,1,468,81a133,133,0,0,1-1.56-13.57q-.48-6.8-.53-13.58t.25-13.6A136.15,136.15,0,0,1,467.43,26.66Z"/><polygon points="445.48 111.06 464.91 139.08 464.91 170.11 426.05 114.27 445.48 111.06"/><path class="cls-2" d="M464.91,109.83a29,29,0,0,1,1.43,6,49.32,49.32,0,0,1,.39,6.06,45.52,45.52,0,0,1-.39,6,27.74,27.74,0,0,1-1.43,6.06,28.3,28.3,0,0,1-1.42-6.06,45.52,45.52,0,0,1-.39-6,47.42,47.42,0,0,1,.39-6.06A28.35,28.35,0,0,1,464.91,109.83Z"/><path d="M584.42,3.77h43.52s-9.51,1.53-9,16.6l1.51,55.85h-26l-1-55.85S595.76,8.61,584.42,3.77Z"/><path d="M590.8,111.07h25.51v36s-.3,18.1,11.1,23.06H583.94s8.36-4,7.86-16.53Z"/><path d="M639.44,3.72l41,0s-8.5,4.22-8,16.6V73.46S666,85,650.45,83V20.37S652.45,8,639.44,3.72Z"/><path d="M646.82,111.07s13.61,2,24.06-7.51v55s3,12.07,11.46,11.53H639.82s9-1.17,8.5-12.37Z"/><path d="M574.75,8.51V42s-7-21.32-36-30c0,0-8.45-3.5-22-3.5a24.12,24.12,0,0,1,14.49-5.19s26.54-1.32,35,9.19Z"/><path d="M545.77,113.82s4.44,3.2,29,0c0,0,5.54,23.81-5.46,39.31C569.29,153.13,570.52,128.31,545.77,113.82Z"/><path class="cls-2" d="M565.47,157.29a12.72,12.72,0,0,1-2.19,4A20.23,20.23,0,0,1,560,164.6a26.39,26.39,0,0,1-8.12,4.37l-2.2.68-2.25.45-1.12.21c-.38.05-.76.08-1.14.12-.75.07-1.51.13-2.27.18-1.51,0-3,0-4.52-.14a39.19,39.19,0,0,1-4.45-.83c1.48-.42,2.93-.68,4.36-.95s2.85-.6,4.25-.91c.7-.18,1.39-.35,2.09-.5l1-.24,1-.29,2-.56,2-.65a49.7,49.7,0,0,0,7.69-3.29A33.93,33.93,0,0,0,565.47,157.29Z"/><path d="M484.18,125.62s11.47,35,43.47,44c0,0-27,.48-39-9.52l-4.45,11.64Z"/><path d="M492.11,30.81a39.65,39.65,0,0,0,0,32s8.57,12,22.86,14,36.42,0,36.42,0S485,54.35,492.11,30.81Z"/><path class="cls-2" d="M51.48,7.8c-1.43,1.68-2.81,3.18-4.15,4.7s-2.61,3-3.83,4.54S41.14,20.15,40,21.8,38,25.2,36.73,27.06a14.25,14.25,0,0,1,.74-6.5,18.66,18.66,0,0,1,3.2-5.77,21.13,21.13,0,0,1,4.81-4.44A15.85,15.85,0,0,1,51.48,7.8Z"/><path d="M120.58,4.4h58.3s-13.91,5.26-14.65,29L165,83.63H136V23.73S138.34,10.72,120.58,4.4Z"/><path d="M200.67,4.44h47.14s-17.93,1.19-21.44,33.2C226.37,37.64,225.83,4.44,200.67,4.44Z"/><path class="cls-2" d="M226.37,40.67a58.17,58.17,0,0,1,2.1,10.75,100.68,100.68,0,0,1,0,21.49,57.39,57.39,0,0,1-2.11,10.75,59,59,0,0,1-2.11-10.75,100.68,100.68,0,0,1,0-21.49A59,59,0,0,1,226.37,40.67Z"/><path d="M135.58,116.56h27s2.86,55.86,12.32,56.16S138.43,183.62,135.58,116.56Z"/><path class="cls-2" d="M225.1,116.7a54.27,54.27,0,0,1-1.23,17.57,61.71,61.71,0,0,1-6.58,17.29,46,46,0,0,1-14.71,15.93,38.13,38.13,0,0,1-13.21,5.43,40.05,40.05,0,0,1-15.85,0,42.15,42.15,0,0,0,14.56-1.58,32.28,32.28,0,0,0,10.56-5.56,42.75,42.75,0,0,0,7.19-7.32,65.2,65.2,0,0,0,5.31-8,125.92,125.92,0,0,0,7.78-16.65C221.11,128.15,223.07,122.46,225.1,116.7Z"/><path class="cls-6" d="M308.36,104.33a9.32,9.32,0,0,0,5.09-4.48c1.09-1.94,2.34-3.81,3.52-5.71,1.37-.83,1.39-2.35,2-3.59a2.66,2.66,0,0,0,2.31-1,4.5,4.5,0,0,1,2.62-1.73,4.59,4.59,0,0,0,1.7-.67c.93-.8,2-.6,3.06-.66a13.75,13.75,0,0,1,6,1.33,1.17,1.17,0,0,1,.79,1.42c-.19,1.77-1.09,3.36-1.39,5.1a42.49,42.49,0,0,0-.67,4.6,11.15,11.15,0,0,0,.46,2.83,2.58,2.58,0,0,0,.45.76c.6.88,1.6.8,2.5.92s1.85.4,2.6-.39c.1-.1.12-.26.27-.61l0,2.78c-1.45.3-2.83.78-4.18-.2a1.18,1.18,0,0,0-.65-.2,3.18,3.18,0,0,1-2.54-1.36,4.57,4.57,0,0,1-1.07-3.09c0-.86-.11-1.74-.18-2.82-.33.25-.57.34-.6.47-.43,1.83-1.94,3-3,4.35-.33.41-.74.76-1.1,1.15a3.53,3.53,0,0,1-2.82,1.23,16.91,16.91,0,0,1-3.41-.32c-2.05-.45-3.29-1.53-3.59-3.51a5.36,5.36,0,0,1-.15-2.64c.09-.25.05-.6-.48-.65-.08.14-.27.3-.28.48a7.32,7.32,0,0,1-1.56,3.65c-.85,1.22-1.73,2.42-2.58,3.65a2,2,0,0,1-1.55.81,23,23,0,0,1-2.37,0c-.44-.62-.74-1.11-1.11-1.54a18.27,18.27,0,0,0-1.75-1.77,4.2,4.2,0,0,1-1.57-2.79c-.6-.22-.81.12-1,.41a3.92,3.92,0,0,0-.68,1.16,7.15,7.15,0,0,1-2.68,3.73,8.46,8.46,0,0,1-4.58-1.26c-1.51-.81-1.91-2.49-3.25-3.55-1.12.85-1.3,2.22-2.13,3.12a39.17,39.17,0,0,1-2.92,2.63c-2.38.47-5.08,1.14-7.83.24-.24-.44-.34-1-.67-1.19-1.33-.86-1.18-2.14-1.22-3.39,0-.87,0-1.74,0-2.8,1.2-.46,1.48-1.72,1.83-2.72.8-.62,1.48-1.09,2.1-1.63A22.17,22.17,0,0,1,286,91.09a3.71,3.71,0,0,1,1.79-.32c1.15.07,2.3,0,3.61,0a9.58,9.58,0,0,0,.36-1.14c.16-.87.3-1.74.4-2.61a3.63,3.63,0,0,0-.08-.86c0-.2-.14-.49,0-.57.61-.59.51-1.35.71-2,.68-2.34.66-4.86,2-7,.46-.76.95-1.5,1.41-2.26a11.92,11.92,0,0,0,.87-1.56,13.52,13.52,0,0,1,3-4.1,4.12,4.12,0,0,1,1.12-.74c.61-.29,1.26-.52,2-.84a3.08,3.08,0,0,1,.44.89c.11,1,.14,1.91.21,2.87a1.76,1.76,0,0,1-.4,1.45A11.34,11.34,0,0,0,301,76.7c-.56,1.84-1.22,3.65-1.74,5.5a10,10,0,0,0-.29,2.61c0,.66-.14,1.06-.83,1.31a1.38,1.38,0,0,0-.64.82c-.63,1.83-1.25,3.65-1.8,5.5-.16.52-.28,1-.83,1.25a2.15,2.15,0,0,0-1.15,1.56,10.47,10.47,0,0,0-.52,3.93,7.65,7.65,0,0,0,1.24,3.32c.68,1.12,1.92,1.41,3.32,1.58,1.24-1.84,2.89-3.47,3.88-5.54a1.38,1.38,0,0,0,.17-.42,13.69,13.69,0,0,1,2.08-4.36,25.26,25.26,0,0,0,1.59-4.38,8.72,8.72,0,0,1,.91-1.77.75.75,0,0,1,1-.33,1.49,1.49,0,0,1,.6.88,2.08,2.08,0,0,1-.2,1.07c-.75,2.09-1.49,4.19-2.31,6.26a7.07,7.07,0,0,0,0,5.82,3.08,3.08,0,0,0,1.78,1.93C307.7,103.39,308,103.94,308.36,104.33Zm11.25-1.48c.38.16.6.23.8.34a3,3,0,0,0,3.23-.19c1.08-.64,2.35-1,3-2.21.12-.23.52-.31.74-.51a7,7,0,0,0,.91-1c1.06-1.4,1.34-3.28,2.94-4.35.05,0,.06-.13.06-.2.07-1.21.85-2.18,1.22-3.29a5.21,5.21,0,0,0,.48-2.59,5.47,5.47,0,0,0-4-.71,5.4,5.4,0,0,0-3.84,1.76,30.36,30.36,0,0,1-2.43,2A33.11,33.11,0,0,0,320,94.71a2.53,2.53,0,0,0-.58,1.41A25.4,25.4,0,0,0,319.61,102.85Zm-29-9.89a4.53,4.53,0,0,0-3.84-.19c-2,1-4.14,1.83-5.76,3.52-1.38,1.45-2.74,2.79-2.53,4.94a6.79,6.79,0,0,1-.08,1.1,5,5,0,0,0,.71,2.76,1.55,1.55,0,0,0,1.47.87,5.7,5.7,0,0,0,3.92-.93c.6-.45,1.59-.32,1.87-1.16.21-.62.73-.91,1.19-1.3a10,10,0,0,0,1.76-2c.81-1.14.95-2.47,1.53-3.65A3.77,3.77,0,0,0,290.61,93Zm8.54-16.5c.48-1.53,1-3.08,1.43-4.62.07-.25.31-.56-.31-.71-.31.34-.8.66-1,1.1a25.81,25.81,0,0,1-2.54,4.17,18.91,18.91,0,0,0-1.95,5.4,7.23,7.23,0,0,0-.19,3.06c0,.26.19.63.06.78-.85,1-.62,2.22-.86,3.34-.06.26-.27.69.32.93a16.92,16.92,0,0,0,1.92-4.47c.34-1.49,1.17-2.84,1.26-4.39,1-1.4.25-3.19,1.07-4.63Zm19.72,21.79c-.9,1.28-.9,1.48.15,2.36C319,99.76,318.92,99.06,318.87,98.25Z"/><path class="cls-6" d="M124.33,94.31c1-.37,2.26-.51,3-1.52.18-.24.72-.2,1.06-.37a20.74,20.74,0,0,0,3.59-2,3.31,3.31,0,0,0,1.09-3.2c0-.13-.19-.23-.37-.42a5.69,5.69,0,0,0,2-3.22c.77-2.32,1.38-4.69,2.28-7a15.09,15.09,0,0,0,.53-2.66,2.23,2.23,0,0,0,1.3-1.56,8.22,8.22,0,0,1,1.87-3.51c1.48-1.75,4-.48,4.38,1a6.47,6.47,0,0,1,.15.88c.33,3.1.25,6.69-1.73,9.6a13.38,13.38,0,0,0-1.42,3,6.1,6.1,0,0,1-1.51,2.13c-.86.91-2.1,1.45-2.66,2.64a2,2,0,0,1-1.1.72,3.62,3.62,0,0,0-2.37,2.79c-.46,1.79-1,3.56-1.51,5.35a14.91,14.91,0,0,0-.4,2.18c0,.25.18.52.32.92a17.06,17.06,0,0,0,5.28-4A6.44,6.44,0,0,0,141,95a17.67,17.67,0,0,1,2.45-1.25c2.72-.88,5.24-2.18,7.84-3.3a6.82,6.82,0,0,1,1.76-.51,3.18,3.18,0,0,1,2.39.67,11.06,11.06,0,0,0,1.19,1,5,5,0,0,0,1.38.27c.11.65.2,1.2.31,1.82l-.81-.24c-2.23,3.13-3.63,6.46-2.56,10.35a6.35,6.35,0,0,0,.86,1.8,2.44,2.44,0,0,0,2.49,1.29,5.78,5.78,0,0,1,1.66.24c0,.93-.66,1.34-1.18,1.86-2,.36-3.35-.85-4.91-1.87-.5-1.59-1-3.28-1.61-5.15-.34.3-.67.47-.83.75-1.43,2.44-3.95,3.45-6.44,4.48a5.34,5.34,0,0,1-1.14.21,3.67,3.67,0,0,1-4.26-1.85c-.36-.64-.82-1.21-1.45-2.11a6.55,6.55,0,0,0,0-1.15,1.65,1.65,0,0,1,.73-1.73c.63-.48.7-1.37,1.44-1.89.34-.24.24-1.08.37-1.84-.49.25-.9.34-1.11.59-1,1.17-2.48,1.67-3.69,2.55s-2.42,1.59-3.54,2.49a27.73,27.73,0,0,0-2.23,2.24,1.47,1.47,0,0,1-2,.4,7.15,7.15,0,0,1,.34-1.15c.46-.93,1-1.84,1.48-2.76a2.22,2.22,0,0,0,.35-.81c.21-2.53,1.33-4.84,1.81-7.3,0-.12-.1-.27-.19-.49a4.65,4.65,0,0,0-3.17.87S118.22,108,89.22,108c0,0-48.1-6.71-67.92,10.07S1.13,146,1.13,146s.06,2.58-1,0,5.15-17.36,20.71-28.86c0,0,20.05-17.47,68.63-11.34C89.46,105.77,109.66,107.84,124.33,94.31Zm31.18-2.07a12.8,12.8,0,0,0-1.95,0,45.66,45.66,0,0,0-4.5,1,11.17,11.17,0,0,0-5.28,3,27.25,27.25,0,0,0-3,3.88c-.89,1.46-.4,3,.3,4.45a2.08,2.08,0,0,0,1.87,1.14c1.69,0,3.47,0,4.83-1.13a12.77,12.77,0,0,0,3.71-4.17C152.76,97.82,154.07,95.19,155.51,92.24ZM143.1,69.66c-1.45-.08-1.93.12-2.39,1.2S140,73,139.6,74c-.15.41-.12,1-.39,1.25A5.9,5.9,0,0,0,137.9,79a8,8,0,0,1-1.42,3.91,3.4,3.4,0,0,0-.66,1.16,7.47,7.47,0,0,0-.1,2c0,.33.59.58.92.41s.74-.37.86-.66a1.62,1.62,0,0,1,1.34-1,1.69,1.69,0,0,0,1.32-1.38,6,6,0,0,1,.89-2,14,14,0,0,0,2.62-8.52A4.88,4.88,0,0,0,143.1,69.66Z"/><path class="cls-6" d="M238.64,106.05c1.33,0,2.73.26,4-.52.19-.12.47-.15.62-.3.4-.42.36-1.24,1.1-1.31s.85-.57,1.21-.91.7-1,1.1-1.41.83-.79,1.43-1.35c.15.51.34.81.26,1a1.8,1.8,0,0,1-.71.85,5.37,5.37,0,0,0-1.8,2c-.19.31-.42.79-.69.83-1.11.17-.45.89-.57,1.46-2.28,1.1-4.83,1.15-7.36,1.4-.76-.58-1.48-1.18-1.31-2.33.06-.41-.68-.66-1.09-.44s-.65.28-.74.51c-.58,1.47-2,1.54-3.25,1.75a15.57,15.57,0,0,1-7.78-.51,1.27,1.27,0,0,1-.74-.75c-.41-.75-.73-.85-1.48-.65a3,3,0,0,0-1.29.45c-1.52,1.38-3.45,1-5.23,1.2-1.36.12-2.43-.66-3.42-1.83a18.1,18.1,0,0,1,1.37-5.32c.46-1.26.91-2.52,1.25-3.8a7.68,7.68,0,0,0,.13-2,2.39,2.39,0,0,0-1.52-2.5,3.69,3.69,0,0,0-3.53-.07A10.39,10.39,0,0,0,204,96.65c-.74,1.79-1.51,3.56-2.39,5.29-.74,1.45-1.39,2.94-2.09,4.41a5.56,5.56,0,0,1-.66,1.13,1,1,0,0,1-1.26.14c-.32-.3-.67-.64-.43-1.14.54-1.13,1.06-2.27,1.65-3.37a48.81,48.81,0,0,0,2.6-5.41,9.88,9.88,0,0,0,.73-3.91,4.06,4.06,0,0,0-.15-1.1,1.69,1.69,0,0,0-2.38-1A9.89,9.89,0,0,0,196,94.31c-.21.21-.34.56-.59.66-1.66.71-2.18,2.24-2.84,3.63-.92,1.94-1.71,3.94-2.55,5.92a8.19,8.19,0,0,0-.65,1.65c-.14.82-.69,1.1-1.41,1.26s-1.3-.41-1-1c.85-1.65,1.12-3.5,2.12-5.13a59.51,59.51,0,0,0,3.07-6.2,10.12,10.12,0,0,0,.55-2.15,1.49,1.49,0,0,0-.83-1.68,3,3,0,0,0-3.23.06,20.31,20.31,0,0,0-4.53,4.24,6.3,6.3,0,0,1-1.06.74c.23-.63.31-.86.39-1.09s.11-.52.26-.6c1.33-.64,1.4-2.26,2.59-3,.78-.49,1.48-1.09,2.27-1.54a4.49,4.49,0,0,1,5.26.93c.34.4.62.84.86,1.16,1.69.18,2.82-.9,4.18-1.33.07,0,.12-.09.19-.13,2.38-1.24,3.54-.89,4.79,1.44.11.19.25.36.44.62a3.54,3.54,0,0,0,1-.5c.54-.54,1-1.12,1.91-1,.17,0,.41-.17.54-.33a2.26,2.26,0,0,1,1.95-1c1.11.08,2.34-.47,3.32.51.19.2.54.25.82.39A2.48,2.48,0,0,1,215.44,93a2.65,2.65,0,0,0,.17.64c.29.18.69.29.83.54s-.29.39-.45.58a5.55,5.55,0,0,0-1.27,2.73,6.72,6.72,0,0,1-.42,1.7,30.7,30.7,0,0,0-1.2,3.58c-.5,1.86.77,3,2.76,2.5,1.54-.34,3.1-.62,4.83-1a13.35,13.35,0,0,0,.1-1.91c-.21-2.31.71-4.35,1.66-6.38a27.09,27.09,0,0,1,1.42-2.79,23.3,23.3,0,0,1,2.18-3.06,2.82,2.82,0,0,1,4.6.76,5.77,5.77,0,0,1,0,5.54A21.23,21.23,0,0,1,229,99.4a6.55,6.55,0,0,1-1.74,1.74,17,17,0,0,0-3.36,3.26c1.36,2,3.42,1.86,5.42,1.7a23.18,23.18,0,0,0,2.94-.59,1,1,0,0,0,.43-.14c.93-.87,1.89-1.72,2.74-2.65a2.57,2.57,0,0,0,.6-1.39c.19-1.83.88-3.6.82-5.47,0-.26.19-.72.35-.75,1-.18,1-1,1.29-1.64,1.05-2.54,2.05-5.11,3.24-7.59,1.49-3.07,2.65-6.29,4.44-9.23a24.9,24.9,0,0,0,2.07-4.21,17.73,17.73,0,0,1,3.19-4.79,5.11,5.11,0,0,1,1.7-1.13c2-1,3-.76,3.73,1.6a11.2,11.2,0,0,1,.32,2.22c-.49.93-.91,1.71-1.33,2.49-.67,1.25-1.33,2.5-2,3.74a40.42,40.42,0,0,1-2.1,3.61,16.92,16.92,0,0,0-2.08,5.09c-.06.21,0,.5-.17.62-1.47,1.3-1.9,3.18-2.89,4.74a21.13,21.13,0,0,1-1.76,2.56c-.58.68-1,1.46-1.58,2.16-1.51,2-3,3.91-4.57,5.85C237.33,103,237.28,104.26,238.64,106.05Zm16.11-38.49c-.38.07-.89,0-1.08.21-1,1.09-2.51,1.78-3.09,3.22-1,2.47-2.79,4.54-3.73,7.05a41.78,41.78,0,0,1-2,3.93,9.18,9.18,0,0,0-.7,1.87,17.66,17.66,0,0,0-.24,2.15c-1.27,1-1.75,2.44-2.34,3.87a34.89,34.89,0,0,1-1.68,3.86,24.16,24.16,0,0,0-1.92,5.4s.08.12.2.29a22.39,22.39,0,0,0,2.79-3.1c1.54-2.45,3.9-4.35,5-7.08.36-.88,1-1.64,1.42-2.51.11-.25-.18-.67-.25-.9.48-.42,1.06-.72,1.32-1.19,1-1.9,2-3.81,2.88-5.78.68-1.55,1.58-3,2.38-4.48C254.84,72.26,255.9,70.12,254.75,67.56ZM223.2,103.09a13.37,13.37,0,0,0,2-1.48c1.05-1.14,1.93-2.43,3-3.57a7.05,7.05,0,0,0,1.62-4.46,2.38,2.38,0,0,0-.61-1.84,1.28,1.28,0,0,0-1.81-.31,2.46,2.46,0,0,0-.76.78A27.29,27.29,0,0,0,224,96.79c-.45,1.24-1,2.44-1.41,3.7A2.53,2.53,0,0,0,223.2,103.09Z"/><path class="cls-6" d="M408.29,100.62l1.21.77a23.13,23.13,0,0,1-2.17,1.49,19.7,19.7,0,0,1-3.92,1.78,7.9,7.9,0,0,1-4.07.2c-.22-.06-.48-.3-.61-.24-1.84.88-3-.61-4.36-1.18a3.19,3.19,0,0,0-.44-.13,3.59,3.59,0,0,0-2.64,1.21,3.08,3.08,0,0,1-1.83.85c-.67.16-1.37.24-2,.41-1.42.36-2.12.1-2.82-1.15a14.08,14.08,0,0,1-2.05-5.36c0-.06-.09-.11-.24-.28-.19.21-.49.38-.53.59a3.09,3.09,0,0,1-1.36,2,37,37,0,0,1-3.16,2.26,14.47,14.47,0,0,1-3.36,1.34,2.44,2.44,0,0,1-2.64-.92,7.75,7.75,0,0,1-2-6.59,5.85,5.85,0,0,0-.2-1.47,75.82,75.82,0,0,0-7.42,7.5c-.54-.24-.36-.54-.24-.77a7.94,7.94,0,0,1,.92-1.54,21.16,21.16,0,0,0,2.8-3.54.78.78,0,0,1,.29-.33c1.39-.64,2-2,3.1-2.92.58-.47,1.12-1,1.75-1.41a15.72,15.72,0,0,0,2.5-2.26,3.92,3.92,0,0,1,2.06-1.35.86.86,0,0,0,.41-.19c1.57-1.52,3.65-1.41,5.63-1.62h.23c1.7-.07,2.08-.3,2.08-2a27.18,27.18,0,0,1,.87-5.24c.45-2.32,1.08-4.6,1.6-6.91.13-.57.05-1.19.2-1.76a16.83,16.83,0,0,1,2.2-4.38,2.22,2.22,0,0,1,1.76-1,1.41,1.41,0,0,1,1.42.57,3.46,3.46,0,0,1,.68,2.74,1.62,1.62,0,0,1-.15.42c-1.67,3.24-1.74,6.88-2.78,10.28a4,4,0,0,1-.86,1.77,1.5,1.5,0,0,0-.16,2,3.37,3.37,0,0,0-1.36,2,72,72,0,0,0-2.37,9.71,12.6,12.6,0,0,0,1.37,7.94c.17.33.62.63,1,.4.88-.6,1.91-.18,2.82-.51s1.64-.43,2.4-.77c.36-.17.57-.65.87-1-.32-.51-.58-1-.86-1.39A5.93,5.93,0,0,1,391,96.5a24.07,24.07,0,0,1,1.69-5.28c.3-.74,1.17-1.3,1.34-2a3.14,3.14,0,0,1,1.73-1.93,5.31,5.31,0,0,1,4.22-.45,1.83,1.83,0,0,1,1.09.75,4.85,4.85,0,0,1,.82,3.59c-.26,1.14-.59,2.27-.76,3.45a3.56,3.56,0,0,1-1.71,2.79A3.54,3.54,0,0,0,398,99c-.39.63-.72,1.22-1.69,1.32-.75.09-1.11,1.39-.66,2a1.31,1.31,0,0,0,.76.4c.52.08,1.07,0,1.58.08a10.37,10.37,0,0,0,5.47-.43C405,101.84,406.48,101.27,408.29,100.62ZM383,91.41c0-.47,0-.62,0-.76,0-1.05-.48-1.52-1.54-1.46a7.53,7.53,0,0,0-1.14.19,17.32,17.32,0,0,0-7.49,4.17c-1,.94-1.95,1.89-1.95,3.39a2.93,2.93,0,0,1-.44,1.26,3.34,3.34,0,0,0,.23,3.2,12.87,12.87,0,0,0,1.09,1.7,1.47,1.47,0,0,0,2,.63c1-.36,2.15-.37,2.73-1.46.1-.18.53-.21.82-.28a3.66,3.66,0,0,0,2.42-1.8c.74-1.23,1.22-2.56,1.92-3.77A12.58,12.58,0,0,0,383,91.41Zm15.37,4.93a5.82,5.82,0,0,0,1.31-2.55,33.17,33.17,0,0,0,.6-3.28A3.5,3.5,0,0,0,400,89a1.25,1.25,0,0,0-.67-.55c-1-.41-1.7.32-2.53.56-.28.08-.57.15-.85.24-.06,0-.1.11-.14.17a17.36,17.36,0,0,0-3.21,7.72,4.85,4.85,0,0,0,1.25,4,16.09,16.09,0,0,0,2.33-2.21,13.71,13.71,0,0,0,1.2-2.74ZM384.9,84.08c1.5-.25,1.65-1.3,1.78-2.21a7.68,7.68,0,0,1,.73-2.52,5.63,5.63,0,0,0,.31-1.5c.07-.44.09-.88.19-1.3.65-2.57,1.32-5.14,1.95-7.71a4.45,4.45,0,0,0-.13-1.27c-.54.46-1,.68-1.17,1a13.43,13.43,0,0,0-1.4,3.48c-.24,1.55-.83,3-1.12,4.51q-.63,3.24-1.22,6.5A4.23,4.23,0,0,0,384.9,84.08Z"/><path class="cls-6" d="M622.41,88.05c-.17-.69-.24-1.33.65-1.63s1.81-1.08,3-1.13a7.89,7.89,0,0,0,2.09-.76c.51.26,1.12.56,1.71.89a3.66,3.66,0,0,1,2,3.94,22.57,22.57,0,0,1-.56,3.06,14.27,14.27,0,0,0-.36,4.41c0,.58,0,1.22.48,1.66.69.58,1.22,1.46,2.19,1.58,2.59.33,5.1,1.33,7.79.78,1.28-.27,2.57-.49,3.86-.72A3.15,3.15,0,0,1,647,100c.4.13,1-.43,1.7-.73a1.63,1.63,0,0,0,2.15.36c1.25-.56,2.58-1,3.87-1.46a2.23,2.23,0,0,0,.8-.44c1.27-1.35,3.09-1.85,4.64-2.77a5.12,5.12,0,0,0,.62-.31c2.73-2.3,6.15-3.72,8.74-6.21a9.92,9.92,0,0,1,1.74-1.11,8.79,8.79,0,0,0,2.68-2.09,5.35,5.35,0,0,1,1.24-1c1.17-.83,2.43-1.55,3.5-2.48a44.08,44.08,0,0,1,4.79-3.11,8.8,8.8,0,0,0,1.34-.87,28.68,28.68,0,0,1,4.26-3c.73-.51,1.31-1.23,2.07-1.71,1.61-1,3.3-1.93,5-2.88a3.57,3.57,0,0,0,.62-.3c2.15-1.88,4.95-2.66,7.37-4.08,1.77-1,3.79-1.61,5.53-2.76a8,8,0,0,1,2.83-1,42.06,42.06,0,0,0,5.86-1.32.72.72,0,0,1,.65.1c.17.18.31.65.24.7a4.87,4.87,0,0,1-1.38.75c-1.39.44-2.83.75-4.21,1.23-1.6.55-3.15,1.21-4.72,1.84a87,87,0,0,0-8.28,3.93,14.66,14.66,0,0,0-1.53,1c-.24.16-.42.48-.69.56a15.49,15.49,0,0,0-5,3.14A11.53,11.53,0,0,1,690,75.82a18.63,18.63,0,0,0-4.32,2.49c-1.6,1-3.14,2.16-4.7,3.26a3.22,3.22,0,0,0-.87.71,9.08,9.08,0,0,1-3.77,3.1,37.33,37.33,0,0,0-7.51,5.15A25.32,25.32,0,0,1,665,93.29c-1.13.61-2.13,1.46-3.21,2.18a38.17,38.17,0,0,1-5,3.23c-1.84.85-3.61,2-5.74,2.22a1.51,1.51,0,0,0-.68.15c-1.75,1.18-3.83,1-5.8,1.31a13,13,0,0,0-3.65.57,3.35,3.35,0,0,1-1.38,0c-1.69-.09-3.39-.22-5.09-.28a2.27,2.27,0,0,1-1.88-.67.51.51,0,0,0-.18-.14c-3.05-1.45-3.35-4-2.86-6.79a34.4,34.4,0,0,0,.39-6.16c0-1.41-1-2.09-2.07-2.69a.94.94,0,0,0-.67-.09c-1.51.54-3.19.63-4.58,1.51-.1.06-.11.26-.16.39Z"/><path class="cls-6" d="M442.21,87.92c-2.87-.42-5.49.5-8.22,0a3.32,3.32,0,0,1,2.66-1.16c1.61-.13,3.22-.26,4.83-.42,1-.1,1.39-.37,1.47-1.36a26.33,26.33,0,0,1,1-4.74,27.83,27.83,0,0,1,1.94-5.2c.93-1.94,2.12-3.77,3.23-5.72.35.12.77.13.88.32.22.36.48.89.34,1.21A11.57,11.57,0,0,1,448.73,74a10.75,10.75,0,0,0-1.91,3.73,28.29,28.29,0,0,0-1.14,7.47,5.9,5.9,0,0,0,1.6.18c1.66-.26,3.3-.61,4.94-.94.61-.12,1.19-.32,1.8-.39a1.1,1.1,0,0,1,1.25.77,3.66,3.66,0,0,1-2,1.18,6.66,6.66,0,0,0-.91.11,21.54,21.54,0,0,1-3,1.09,18.49,18.49,0,0,1-3,0,3.07,3.07,0,0,0-.91.29c-.06.46-.14.89-.17,1.32a32.29,32.29,0,0,1-1,6.77c-.15.57-.24,1.15-.34,1.74a3.63,3.63,0,0,0,.23,2.65l-2.25.22c-.9,1.14-1.76,2.27-2.69,3.35a4.56,4.56,0,0,1-1.24,1c-.8.45-1.64.82-2.46,1.24a5,5,0,0,1-2.9.55,10.65,10.65,0,0,0-2.93.09,1.58,1.58,0,0,1-1.78-.67c-.17-.24-.37-.46-.63-.78a1.41,1.41,0,0,1,1.68-.16c1.87,1.08,3.56.4,5.22-.46,1-.51,2-1.08,3-1.66a2.63,2.63,0,0,0,.56-.63,9.77,9.77,0,0,1,1.7-2A6.61,6.61,0,0,0,442,94.61c.11-1.84.2-3.68.36-5.52A6.63,6.63,0,0,0,442.21,87.92Z"/><path class="cls-6" d="M453.16,94.23a5,5,0,0,0-1.66,2.32c-.56,1.73-1.93,3-2.72,4.59a1.62,1.62,0,0,1-.61.58c-1,.61-2.1,1.19-3.34,1.88-.08-.45-.25-.81-.14-.93a5.61,5.61,0,0,1,1.54-1.3,4.25,4.25,0,0,0,2.06-2c1.2-2.65,3.2-4.86,4.44-7.48a18.41,18.41,0,0,0,1.74-4.06.89.89,0,0,1,1.18-.77c.43.07.77.29.73.71a10.67,10.67,0,0,1-.36,2.18,20.75,20.75,0,0,0-.85,7.46c.12,1.39.33,2.82,1.77,3.71a14,14,0,0,0,2.05-.27A5.09,5.09,0,0,0,461.82,99,68.76,68.76,0,0,0,466.18,92a13.86,13.86,0,0,0,1.29-3.33,1.82,1.82,0,0,1,2.31-1.45,2.36,2.36,0,0,1-.12,2.83c-1.85,2.17-1.77,4.66-1.42,7.17.16,1.1.2,2.43,1.64,3,.11,0,.18.24.23.37a2.33,2.33,0,0,0,2.66,1.66,1.79,1.79,0,0,1,.46,0c1.06.17,1.21.46.89,1.72a3.12,3.12,0,0,1-.42.18,4.64,4.64,0,0,1-5.26-1.83,8.09,8.09,0,0,1-1.94-3.23c-.16-.77-.28-1.55-.44-2.46-.26.09-.61.1-.76.27A10.83,10.83,0,0,0,463.65,99a8.76,8.76,0,0,1-2.44,2.63,3.47,3.47,0,0,1-2.34.84c-1,0-2,.42-3,.06s-.84-1.55-1.57-2.1-.33-1.42-.65-2.07a4.25,4.25,0,0,1-.3-3A4.2,4.2,0,0,0,453.16,94.23Z"/><path class="cls-6" d="M253.38,104.18c-.15,0-.36.15-.44.09a3.84,3.84,0,0,1-2-4.08,5.28,5.28,0,0,0,.26-1.06c-.11-2.92,1.79-4.92,3.44-7,1.24-.32,1.63-1.47,2.38-2.26.34-.37.63-.84,1.31-.7.18,0,.44-.13.6-.27a4.46,4.46,0,0,1,3.91-.84,4.87,4.87,0,0,0,.93.08,4.38,4.38,0,0,1,2.68,1.06c2.4,1.64,2.56,3.91,2.16,6.32a19.83,19.83,0,0,1-2.26,5.56,5.37,5.37,0,0,1-1.25,1.27c-.56.51-1.16,1-1.85,1.56.27.43.43,1,.81,1.22a3.06,3.06,0,0,0,1.52.32c2.33,0,4-1.23,5.73-2.52,1.31-1,2.66-1.93,4.29-3.1-.12.58-.09,1-.24,1.06a9.14,9.14,0,0,0-2.74,2.94,2.27,2.27,0,0,1-1.84,1.11c-.82.07-.88.32-.55,1.32-2.4.73-4.85.53-7.35.49-.53-.64-1-1.3-1.59-1.89-.15-.16-.52-.12-.79-.17l.05,0a2.84,2.84,0,0,0,.07-2,12.17,12.17,0,0,1-.34-1.72,9.47,9.47,0,0,1,1.05-6.14c.38-.81.71-1.64,1.13-2.42s.89-1.37,1.39-2.12a2.19,2.19,0,0,0-2.71-.49c-1.17.51-2.47.92-3.19,2.11a1.71,1.71,0,0,1-.82.71c-1.72.5-2.45,2-3.4,3.18-1.11,1.38-1.24,3.16-1.43,4.84a2.62,2.62,0,0,0,.58,2.1,1.63,1.63,0,0,1,.44,1.44Zm9-1.28a6.42,6.42,0,0,0,1.09-.62,6.7,6.7,0,0,0,1.77-1.65,35.29,35.29,0,0,0,2-4.71,4.5,4.5,0,0,0-.43-3.84,1,1,0,0,0-1.55-.36,3.85,3.85,0,0,0-.9,1c-.51.82-.87,1.74-1.43,2.53-1.62,2.32-1.46,4.8-.84,7.33C262.08,102.69,262.25,102.78,262.36,102.9Z"/><path class="cls-6" d="M531.3,87.56a3.28,3.28,0,0,0-3-1.15l1.51-1,2.12.6a5.83,5.83,0,0,1,1,3.36A4.89,4.89,0,0,0,535,87.76a8,8,0,0,1,2.79-2.18,6.7,6.7,0,0,1,2.89-.64,3,3,0,0,1,3.08,2.49,9.65,9.65,0,0,1,0,3.08c-.52,2.84-1.15,5.66-1.85,8.46a5.23,5.23,0,0,0,.25,3.45,2.41,2.41,0,0,0,3,.09c.89-.52,1.94-.75,2.23-2,.19-.82,1.1-.52,1.74-.59.2,1-.33,1.38-.92,1.77a1.8,1.8,0,0,0-1,1.5c-.91.55-1.75,1.06-2.58,1.58a1.22,1.22,0,0,1-1.32.08c-1.06-.6-2.14-1.18-3.14-1.86-.66-.44-.66-.93-.31-1.74a5.25,5.25,0,0,0,.44-1.24A26.52,26.52,0,0,1,541,96.1c.35-1.08.88-2.06.47-3.22a10.2,10.2,0,0,0,.69-2.31,3.88,3.88,0,0,0-1.52-4.74c-.68.23-1.38.46-2.06.72a1.91,1.91,0,0,0-.76.44,21.9,21.9,0,0,0-2.15,2.87c-.34.6-1.07.63-1.31,1.13A9.41,9.41,0,0,0,534,92.7a3.35,3.35,0,0,1-.42.79A9.37,9.37,0,0,0,532,98a2.8,2.8,0,0,1-.41,1.26c-.67,1.26-1.35,2.49-1,4,.13.45-.6,1-1.11.83a10.82,10.82,0,0,1-1.48-.69,15.56,15.56,0,0,1,1.91-6.71,9.73,9.73,0,0,0,1-3.18A33.33,33.33,0,0,0,531.3,87.56Z"/><path class="cls-6" d="M553,95.29a22.15,22.15,0,0,0-.46,2.32,5.87,5.87,0,0,0,.11,2,2.09,2.09,0,0,0,2.43,1.87,4.41,4.41,0,0,0,3.16-1.13c.42-.42.89-.79,1.38-1.22l1,.36c0,.21,0,.39,0,.46-.74.71-1.48,1.43-2.27,2.1a7.09,7.09,0,0,1-1.52,1c-.87.39-1,.3-1.76-.75-.15,0-.33,0-.45,0-1.75.92-1.81.91-2.92-.64-.52-.72-1.06-1.44-1.64-2.23-.13-2.39,1.68-4.31,2.08-6.74,1.47,0,2-1.28,2.72-2.12a12.17,12.17,0,0,1,4.7-3.41A12.45,12.45,0,0,1,562.31,86a2.85,2.85,0,0,1,2.58.65.72.72,0,0,1,.19.57.7.7,0,0,1-.46.43,3.5,3.5,0,0,1-1.37,0c-1.55-.49-2.72.27-3.83,1s-2.38,1.86-3.54,2.82a4.25,4.25,0,0,0-.74.84C554.43,93.32,553.74,94.29,553,95.29Z"/><path class="cls-6" d="M525.05,86.21a24.42,24.42,0,0,1-.56,3.37l1.82-.65c-.46,1.08-.75,1.9-1.14,2.67-.47.93-1.07,1.8-1.55,2.72a13.78,13.78,0,0,0-.7,1.85c-.15.42-.24.86-.4,1.28a10.35,10.35,0,0,0-1,3.63,6.25,6.25,0,0,1-.49,1.61,3.07,3.07,0,0,1-1.23-.13,1.55,1.55,0,0,1-.88-1.47,6.42,6.42,0,0,1,.23-1.31c.26-.84.59-1.66.87-2.5A21.37,21.37,0,0,1,520.8,95c.61-1.27,1.3-2.51,2-3.73a2,2,0,0,0,.39-1.85,5.64,5.64,0,0,1,0-2c0-.43.06-.86.12-1.53l-2.78,1.14a1.17,1.17,0,0,1,0-1.54,3,3,0,0,1,1.11-1.09,2.56,2.56,0,0,1,2.54.64A5,5,0,0,1,525.05,86.21Z"/><path class="cls-6" d="M592.79,100.82c.1-.92.51-1.65.27-2.5-.79-2.71.09-5.38.36-8.07a.57.57,0,0,1,.2-.39,1.73,1.73,0,0,1,.73-.39c.32,0,.63.59.36.87a3.2,3.2,0,0,0-.58,2.52A22.75,22.75,0,0,0,594.3,98c.38.08.75.14,1.11.24a9.19,9.19,0,0,1,.86.35c-.07.57-.14,1.07-.21,1.54a4.17,4.17,0,0,0,4.44,1.73,12.43,12.43,0,0,0,5.53-2,5.13,5.13,0,0,0,1.78-2c.55.74.27,1.31-.08,2a5.78,5.78,0,0,1-5.14,3.19c-.62,0-1.23.13-1.85.21a5.25,5.25,0,0,1-5-1.62C595.06,100.84,595,100.88,592.79,100.82Z"/><path class="cls-6" d="M579.13,86.51c.49-.05,1,0,1.37-.17,1.25-.83,2.66-.67,4-.68a4.52,4.52,0,0,1,1.79.33,5,5,0,0,0,1.75.44.92.92,0,0,1,.89,1.26,8.32,8.32,0,0,1-.77,2.52c-1.26,2-1.4,4.36-3,6.17a9.59,9.59,0,0,0-1,2.19,8.22,8.22,0,0,1-.58.87c-.61,0-.65-.4-.68-.77a7.14,7.14,0,0,1,.9-2.94,51.3,51.3,0,0,1,2.67-5.85,18.28,18.28,0,0,0,.79-2.19,12,12,0,0,0-1.17-.3c-.22,0-.5.15-.68.08-2.17-.89-4,.31-6,.79a5.1,5.1,0,0,0-1.88,1.23,3,3,0,0,1-2.18,1c-.33-.34,0-.58.2-.7,1-.51,1.47-1.76,2.81-1.75Z"/><path class="cls-6" d="M513.93,96.19c.13.67.3,1,.21,1.2A15.78,15.78,0,0,1,512.9,100c-.73,1.14-1.55,2.21-1.49,3.52a1.72,1.72,0,0,1-1.87.32,5.44,5.44,0,0,1-1.8-1.34,33.3,33.3,0,0,1-2.2-3.09,1.69,1.69,0,0,1-.08-1.9c.22-.38.38-.79.58-1.21.58.4.24,1.13.56,1.63s.5,1,.9,1.2a1.93,1.93,0,0,1,1.43,1.22c.15.43.81.48,1.19.15a2.34,2.34,0,0,0,.68-.86C511.32,98.22,512.5,97.4,513.93,96.19Z"/><path class="cls-6" d="M573.88,106.88c.15-.16.28-.44.44-.46,1.88-.26,3.53-1.24,5.47-1.37a3.4,3.4,0,0,0,2.88-1.88l0,0c1.07-.37,2.3-.46,3-1.55a.47.47,0,0,1,.39-.2c1.35.23,2.17-1,3.44-1.12.41,0,.79-.6,1.26-1,.33.31.76.54.79.81a1.12,1.12,0,0,1-.52.86c-.89.58-2,.88-2.62,1.78a.94.94,0,0,1-.59.3,6.87,6.87,0,0,0-2.88,1.37c-.56.4-1.37-.11-1.83.67a7.92,7.92,0,0,1-1.52,1.47l-1.21-.85c-1.91.47-3.76.93-5.62,1.35-.25,0-.56-.18-.84-.28Z"/><path class="cls-6" d="M567.67,99.71a5.16,5.16,0,0,1-1.84,2.27c-1.58-.44-2.68-1.22-3-2.81a5.09,5.09,0,0,0-.37-1,2.17,2.17,0,0,1,.17-2.12c.35-.57.63-1.18,1-1.75a11.66,11.66,0,0,0,2.14-5.3,1.47,1.47,0,0,1,.25-.61,2,2,0,0,1,.36-.33,1.35,1.35,0,0,1,1.3,1c-1,2.46-2.08,4.9-3.08,7.37a8.4,8.4,0,0,0-.53,1.92c-.2,1.46.5,2.08,2,1.81C566.42,100,566.76,99.94,567.67,99.71Z"/><path class="cls-6" d="M616.1,91.58l3.09-1c.13.65-.3,1.13-.56,1.6a14.89,14.89,0,0,0-1.49,3.92,35.46,35.46,0,0,1-1.49,4.39,2.77,2.77,0,0,1-.63.9,1,1,0,0,1-1.5-.36,3.17,3.17,0,0,1,0-1.5,23.4,23.4,0,0,1,1.87-4.73A3.9,3.9,0,0,0,616.1,91.58Z"/><path class="cls-6" d="M505.84,94.46c-.62-.46-.24-1.33-.83-1.91a3.86,3.86,0,0,1-.71-2c-.1-.46-.27-1,.32-1.41a.43.43,0,0,0,.18-.36c-.49-1.66.69-3.12.48-4.79a3.28,3.28,0,0,1,1.11-.37c.52,0,.73.48.76,1s.23,1.12,0,1.52c-.62,1.21-.25,2.46-.39,3.67a12.21,12.21,0,0,0-.19,3.72A.87.87,0,0,1,505.84,94.46Z"/><path class="cls-6" d="M576.75,100.67l-.12.66a4.43,4.43,0,0,1-3.64.18l-2.8-3.71a8.38,8.38,0,0,1,1.1-3.37,18.82,18.82,0,0,1,1.78-2.85,1,1,0,0,1,1.5-.14,19.75,19.75,0,0,1-3.49,5.37l.85.52-.28,1,2.3,2.29,2.82.12Z"/><path class="cls-6" d="M505.93,78.07c.37-1.18.72-2.28,1.09-3.47a18.54,18.54,0,0,1,2.11,0,1.3,1.3,0,0,1,1.08,1.45,4.86,4.86,0,0,1-1.3,2.52C508.23,79.25,507.34,79.13,505.93,78.07Z"/><path class="cls-6" d="M575.08,117.24a2.14,2.14,0,0,1-2.12,1.08,35.7,35.7,0,0,1-4.1-.55,2.73,2.73,0,0,1-2-1.72c-.37-.9-.84-1.9-.12-3,.21.19.43.3.49.46.12.35.13.73.23,1.08.62,2.19,1.07,2.71,3.35,3a6.86,6.86,0,0,0,4.28-.33Z"/><path class="cls-6" d="M573.84,106.83c.31.84-.43,1-1,1.22-1.07.38-2.18.65-3.26,1-.49.16-1,.36-1.44.53-.37-.37,0-.52.18-.69.39-.34.77-.68,1.19-1a2,2,0,0,1,1-.51,2.57,2.57,0,0,0,2.4-1.46l1,1Z"/><path class="cls-6" d="M616.24,90c-.16-.92-1-1.11-1.56-1.52-1.13-.77-1.15-1.49-.07-2.83.74.94,1.48,1.84,2.16,2.77C617.13,88.9,616.92,89.38,616.24,90Z"/><path class="cls-6" d="M496.36,101.74c.59-.35.22-.92.3-1.38a6.66,6.66,0,0,1,1.75-3.75,19.13,19.13,0,0,0,1.67-2.34c.27.5.54.85.19,1.31s-.56.87-.84,1.31l-3.06,4.83Z"/><path class="cls-6" d="M496.37,101.72c-.8.38-1.58.79-2.4,1.13a1.2,1.2,0,0,1-1.11-.24c.27-.13.63-.19.8-.4s.19-.71.41-1a7.45,7.45,0,0,1,1.13-.87l1.16,1.38Z"/><path class="cls-6" d="M309.05,81.51c.29-.3.57-.63.89-.91a1.28,1.28,0,0,1,.59-.27c.48-.06,1,.06,1.12.52a1.34,1.34,0,0,1-.27,1,1.18,1.18,0,0,1-.75.4A1.47,1.47,0,0,1,309.05,81.51Z"/><path class="cls-6" d="M260.52,104.65c-.77.34-1.52.71-2.3,1a1.82,1.82,0,0,1-2.06-.44c.39-.78,1.08-.86,1.76-1,.78.74,1.81,0,2.65.43Z"/><path class="cls-6" d="M579.3,114.6a1.48,1.48,0,0,1-.75,1.27A4.65,4.65,0,0,0,577,117a1.6,1.6,0,0,1-1.89.21h0a7.62,7.62,0,0,0,2.48-1.72,3,3,0,0,1,1.7-.92Z"/><path class="cls-6" d="M580.31,108.74a3.72,3.72,0,0,1-1.11,3.75C579.19,111.12,579.79,110.15,580.31,108.74Z"/><path class="cls-6" d="M576.77,100.7a6.45,6.45,0,0,0,.62-.21c.88-.42,1-.34,1,.79-.72.26-1.09-.4-1.64-.6Z"/><path class="cls-6" d="M622.41,88.05c-.86-.45-1,.68-1.73.69-.27-.6.15-.9.67-1.27l1.06.58Z"/><path class="cls-6" d="M253.34,104.24c1-.45,1.33-.24,1.28,1a1.36,1.36,0,0,1-1.24-1.07Z"/><path class="cls-6" d="M216.22,96.32l.17.08"/><path class="cls-6" d="M250.07,99.33a6.1,6.1,0,0,1-1.13.27c-.06,0-.14-.35-.22-.55a3.29,3.29,0,0,1,.78-.23C249.63,98.81,249.76,99,250.07,99.33Z"/><path class="cls-6" d="M516.27,93.84l-.76.4c0-.12-.19-.31-.16-.35a1.69,1.69,0,0,1,.53-.35C515.94,93.52,516.07,93.68,516.27,93.84Z"/><path class="cls-6" d="M518.17,90.67A9.14,9.14,0,0,1,518,89.4c0-.12.26-.24.6-.52-.2.76-.34,1.28-.47,1.8Z"/><path class="cls-6" d="M140.41,96.38l0-.55h.1l0,.56Z"/><path class="cls-6" d="M582.85,100.49c.08.18.21.35.17.4a2.92,2.92,0,0,1-.48.37c-.06-.13-.2-.3-.16-.36A2.39,2.39,0,0,1,582.85,100.49Z"/><path class="cls-6" d="M582.67,103.17c-.3,0-.64.06-.52-.41a.25.25,0,0,1,.17-.13c.46,0,.44.28.3.58Z"/><path class="cls-6" d="M312.62,106h.18c0,.05-.05.13-.09.15s-.12,0-.17,0Z"/><path class="cls-6" d="M527,88.78l.36-.11a.89.89,0,0,1,.06.15,3.59,3.59,0,0,1-.35.12A1.65,1.65,0,0,1,527,88.78Z"/><path class="cls-6" d="M518.16,90.68a4.91,4.91,0,0,1-.66.06c-.07,0-.13-.14-.19-.22s.15,0,.21,0c.22.05.43.12.64.18Z"/><polygon class="cls-6" points="129.69 107.08 129.86 107.17 129.67 107.22 129.69 107.08"/><polygon class="cls-6" points="325.55 105.97 325.54 105.84 325.73 105.89 325.55 105.97"/><path class="cls-6" d="M579.29,114.62l0-.41c0,.13,0,.25,0,.39Z"/><polygon class="cls-6" points="494.87 102.45 496.63 101.46 498.19 98.85 501.65 94.5 503.37 91.99 504.56 90.22 505.73 87.48 505.71 85.12 504.48 87.4 499.57 94.52 495.2 100.36 494.61 101.63 494.87 102.45"/><polygon class="cls-6" points="506.81 88.86 506.89 97 508.43 100.12 509.72 101.24 508.33 101.85 506.33 100.58 504.81 96.47 504.22 92.17 504.56 90.22 506.81 88.86"/><path class="cls-6" d="M443.76,98.15v1.2l.2,1.14,1.25,1.63h.83v.8l-1.13.34s-.84-.18-.84-.3-1-2-1-2l-.54-1.91.31-1.14Z"/><polygon class="cls-6" points="513.71 98.41 516.28 94.12 517.75 91.26 519.44 88.75 520.76 86.97 522.97 86.07 522.11 85.11 520.56 85.12 518.62 88.01 515.79 92.39 513.33 96.69 512.28 98.43 513.71 98.41"/><polygon class="cls-6" points="525.17 91.6 527.04 88.78 527.84 87.28 528.8 86.9 530.35 86.78 531.65 86.29 529.82 85.44 528.07 86.29 526.68 87.47 524.66 88.96 524.49 90.42 525.17 91.6"/><polygon class="cls-6" points="547.53 102.44 549.54 101.06 550.94 100.07 551.45 98.06 551.43 96.55 549.8 98.08 548.95 99.76 548.42 100.32 547.53 102.44"/><polygon class="cls-6" points="579.71 88.19 576.58 90.19 574.85 91.23 574.11 92.33 571.92 94.95 572.44 93.03 573.07 91.58 575.54 89.25 577.84 87.18 579.69 86.15 581.17 86.55 579.71 88.19"/><polygon class="cls-6" points="575.57 101.89 578.03 101.78 581.31 100.51 583.59 99.44 584.96 96.72 584.94 94.83 582.66 98.34 580.04 99.47 578.07 100.54 575.56 100.65 575.57 101.89"/><polygon class="cls-6" points="585.2 96.38 584.29 98.92 583.78 100.75 583.05 103.75 582.68 105.83 581.12 110.29 579.85 113.68 579.03 115.44 577.45 116.03 578.53 114.42 579.82 111 580.42 108.08 581.36 105.11 583.42 98.33 584.58 95.39 585.88 92.52 585.2 96.38"/><polygon class="cls-6" points="567.95 115.71 567.93 114.31 567.9 111.3 569.25 109.16 570.97 108.35 571.57 107.73 570.29 107.75 567.29 110.42 566.58 112.61 566.6 114.33 566.88 116.05 567.95 115.71"/><polygon class="cls-6" points="309.27 81.28 311.63 77.29 312.87 76.81 314.09 77.36 314.1 79.02 312.62 80.3 310.36 81.83 309.27 81.28"/><path class="cls-6" d="M605.54,85.45l-2.83-1.88-3.77,0L595.48,86l-1.13,3.47-1.51,4.79.22,4.06,2.17,1.38,5.2-2.09,4.89-4.55.73-4.1Zm-1.7,7.25-3.66,3.4-3.88,1.56-1.63-1-.16-3L595.64,90l.85-2.6,2.58-1.79,2.82,0L604,87l.38,2.63Z"/><path class="cls-7" d="M252.86,102.82a.41.41,0,0,0,.17.35"/><path class="cls-7" d="M254.29,104a1.13,1.13,0,0,0,.42.39"/><path class="cls-6" d="M254.51,104.21a6,6,0,0,0,1.84.27,10.68,10.68,0,0,0,4.51-.47,1.45,1.45,0,0,1-.88,1.14,4.21,4.21,0,0,1-1.5.34l-1.61.18a4.44,4.44,0,0,1-2.43-.19,7.71,7.71,0,0,1-.72-.44c-.4-.23-1.52-.7-1.09-1.32S254.06,104,254.51,104.21Z"/><path class="cls-2" d="M515.15,8.27a68.69,68.69,0,0,0-6.91,4.16,46.71,46.71,0,0,0-6,4.85A45.67,45.67,0,0,0,497,23c-.85,1-1.53,2.12-2.34,3.2-.44.53-.72,1.13-1.12,1.7s-.76,1.15-1.19,1.72c.05-.7.15-1.39.26-2.09a13.14,13.14,0,0,1,.44-2.07,21.28,21.28,0,0,1,1.53-4,23.51,23.51,0,0,1,5.11-6.87,24,24,0,0,1,7.15-4.7A18.91,18.91,0,0,1,515.15,8.27Z"/></g></g></svg>